<svg width="50" height="50" viewBox="0 0 50 50" fill="none" xmlns="http://www.w3.org/2000/svg">
<path d="M38.2812 0H11.7188C5.24666 0 0 5.24666 0 11.7188V38.2812C0 44.7533 5.24666 50 11.7188 50H38.2812C44.7533 50 50 44.7533 50 38.2812V11.7188C50 5.24666 44.7533 0 38.2812 0Z" fill="#242938"/>
<path d="M43 19.25V15.75H34.25V7H30.75V15.75H27.25V7H23.75V15.75H20.25V7H16.75V15.75H8V19.25H16.75V22.75H8V26.25H16.75V29.75H8V33.25H16.75V42H20.25V33.25H23.75V42H27.25V33.25H30.75V42H34.25V33.25H43V29.75H34.25V26.25H43V22.75H34.25V19.25H43Z" fill="#FF9800"/>
<path d="M11.4999 14V35C11.4999 36.925 13.0749 38.5 14.9999 38.5H35.9999C37.9249 38.5 39.4999 36.925 39.4999 35V14C39.4999 12.075 37.9249 10.5 35.9999 10.5H14.9999C13.0749 10.5 11.4999 12.075 11.4999 14Z" fill="#4CAF50"/>
<path d="M31.625 30.625H19.375C18.4125 30.625 17.625 29.8375 17.625 28.875V20.125C17.625 19.1625 18.4125 18.375 19.375 18.375H31.625C32.5875 18.375 33.375 19.1625 33.375 20.125V28.875C33.375 29.8375 32.5875 30.625 31.625 30.625Z" fill="#37474F"/>
</svg>
