<svg width="50" height="50" viewBox="0 0 50 50" fill="none" xmlns="http://www.w3.org/2000/svg">
<path d="M38.2812 0H11.7188C5.24666 0 0 5.24666 0 11.7188V38.2812C0 44.7533 5.24666 50 11.7188 50H38.2812C44.7533 50 50 44.7533 50 38.2812V11.7188C50 5.24666 44.7533 0 38.2812 0Z" fill="#00979C"/>
<path fill-rule="evenodd" clip-rule="evenodd" d="M3.71094 26.6625V23.4561C3.77813 23.4227 3.77812 23.3559 3.77812 23.2891C4.78652 18.9137 7.54297 16.275 11.9129 15.2395C12.2826 15.1393 12.6859 15.1727 13.0559 15.0391H15.207C15.2406 15.1059 15.3416 15.0725 15.4088 15.0725C17.5602 15.3062 19.5098 16.0744 21.224 17.4105C22.7031 18.5127 23.8461 19.9156 24.8881 21.4186C25.0225 21.6189 25.0898 21.6189 25.2242 21.4186C25.8293 20.5502 26.468 19.7152 27.2074 18.9471C28.9891 17.0432 31.1404 15.707 33.7623 15.2395C34.132 15.1393 34.5689 15.1727 34.9389 15.0391H37.0229C37.0564 15.1059 37.1238 15.0725 37.191 15.0725C37.8297 15.1393 38.4348 15.2729 39.0398 15.4398C43.5441 16.7426 46.7375 20.8508 46.4686 25.4936C46.2668 29.4016 44.2836 32.2072 40.8213 33.9773C39.107 34.9127 37.2246 35.1465 35.275 35.1131C32.7203 35.0797 30.5018 34.2111 28.5857 32.5412C27.241 31.3721 26.199 29.9693 25.2242 28.4996C25.0898 28.2992 25.0225 28.3326 24.8881 28.533C24.283 29.435 23.6443 30.3367 22.9049 31.2051C21.5939 32.6748 20.0813 33.8771 18.1988 34.5119C15.8793 35.3135 13.5264 35.3469 11.1734 34.7123C7.77832 33.7436 5.45898 31.6059 4.18164 28.3326C3.97988 27.7982 3.87891 27.1971 3.71094 26.6625ZM14.4004 31.5725C16.3164 31.6393 17.9635 31.0047 19.3752 29.7021C20.8207 28.366 21.8627 26.6959 22.9049 25.0594C22.9385 24.9592 22.9385 24.8924 22.8713 24.7922C21.9973 23.4227 21.0896 22.0533 19.8795 20.9176C17.5602 18.7131 14.8373 17.9783 11.7785 18.9469C9.25742 19.782 7.64375 21.5521 7.27402 24.2242C6.9043 26.7293 7.8791 28.7334 9.8959 30.2365C11.2406 31.2051 12.7533 31.6059 14.4004 31.5725ZM35.7119 31.5725C36.4514 31.5725 37.191 31.5391 37.8969 31.3387C40.5523 30.5371 42.3004 28.9004 42.8047 26.1615C43.3088 23.4561 42.2668 21.285 39.9811 19.7486C37.46 18.0117 33.7959 18.1787 31.2412 20.0826C29.527 21.3518 28.384 23.0553 27.241 24.8256C27.1738 24.9258 27.2074 24.9926 27.241 25.0928C28.1486 26.5289 29.0563 27.9652 30.2328 29.201C31.7117 30.7709 33.4934 31.6727 35.7119 31.5725Z" fill="white"/>
<path fill-rule="evenodd" clip-rule="evenodd" d="M14.3668 23.9904C15.4424 23.9904 16.5518 24.0238 17.6273 23.9904C17.8963 23.9904 17.9299 24.0572 17.9299 24.3244C17.8962 24.6241 17.8962 24.9267 17.9299 25.2264C17.9635 25.4936 17.8963 25.5604 17.5938 25.5604H13.291C12.5516 25.5604 11.8121 25.527 11.0725 25.5604C10.8371 25.5604 10.7699 25.4936 10.7699 25.2264C10.8035 24.9258 10.8035 24.6252 10.7699 24.291C10.7699 24.0572 10.8371 23.9904 11.0727 23.9904C12.1482 24.0238 13.2574 23.9904 14.3668 23.9904ZM35.544 21.8527C35.8127 21.8527 36.0816 21.8861 36.317 21.8527C36.4852 21.8527 36.5523 21.9195 36.5523 22.0865C36.5188 22.5543 36.5523 23.0219 36.5188 23.4895C36.5188 23.7232 36.5859 23.79 36.8213 23.79C37.2582 23.7566 37.7289 23.79 38.1994 23.7566C38.4012 23.7566 38.4684 23.79 38.4684 24.0238V25.5604C38.4684 25.7273 38.4012 25.7941 38.233 25.7941C37.7625 25.7607 37.2918 25.7941 36.7877 25.7607C36.5859 25.7607 36.5188 25.8275 36.5188 26.0279C36.5523 26.4955 36.5188 26.9631 36.5523 27.4309C36.5523 27.6313 36.4852 27.7314 36.2834 27.7314C35.7797 27.698 35.2744 27.698 34.7707 27.7314C34.5691 27.7314 34.5018 27.6647 34.5018 27.4643C34.5354 26.9631 34.5018 26.4955 34.5354 25.9945C34.5354 25.8275 34.4682 25.7607 34.3002 25.7607C33.8295 25.7941 33.359 25.7607 32.8883 25.7941C32.6193 25.7941 32.5857 25.6939 32.5857 25.4936C32.5857 25.026 32.6193 24.5582 32.5857 24.0906C32.5522 23.8234 32.6867 23.7566 32.9219 23.7566C33.3926 23.79 33.8295 23.7566 34.3002 23.79C34.4682 23.79 34.5354 23.7232 34.5354 23.5563C34.5018 23.0887 34.5354 22.5877 34.5018 22.1201C34.5018 21.9195 34.5691 21.8527 34.7707 21.8527C35.0397 21.8861 35.275 21.8527 35.544 21.8527Z" fill="white"/>
</svg>
