<svg width="50" height="50" viewBox="0 0 50 50" fill="none" xmlns="http://www.w3.org/2000/svg">
<path d="M38.2812 0H11.7188C5.24666 0 0 5.24666 0 11.7188V38.2812C0 44.7533 5.24666 50 11.7188 50H38.2812C44.7533 50 50 44.7533 50 38.2812V11.7188C50 5.24666 44.7533 0 38.2812 0Z" fill="#242938"/>
<path d="M24.8592 5.66406C14.9428 5.66406 15.5619 9.96445 15.5619 9.96445L15.573 14.4195H25.0361V15.7574H11.8143C11.8143 15.7574 5.46875 15.0375 5.46875 25.0432C5.46875 35.0488 11.0072 34.6943 11.0072 34.6943H14.3127V30.0512C14.3127 30.0512 14.1346 24.5127 19.7629 24.5127H29.1484C29.1484 24.5127 34.4217 24.5979 34.4217 19.4162V10.8488C34.4217 10.8488 35.2223 5.66406 24.8592 5.66406ZM19.6412 8.65996C19.8648 8.65978 20.0863 8.7037 20.293 8.78919C20.4996 8.87469 20.6874 9.00009 20.8455 9.15822C21.0036 9.31635 21.129 9.50411 21.2145 9.71075C21.3 9.9174 21.3439 10.1389 21.3438 10.3625C21.3439 10.5861 21.3 10.8076 21.2145 11.0142C21.129 11.2208 21.0035 11.4085 20.8454 11.5667C20.6873 11.7248 20.4995 11.8501 20.2929 11.9356C20.0863 12.0211 19.8648 12.065 19.6412 12.0648C19.4176 12.065 19.1962 12.0211 18.9896 11.9356C18.783 11.8501 18.5952 11.7247 18.4371 11.5666C18.279 11.4085 18.1536 11.2207 18.0681 11.0141C17.9826 10.8075 17.9387 10.5861 17.9389 10.3625C17.9387 10.1389 17.9826 9.91743 18.0681 9.7108C18.1536 9.50417 18.2789 9.31642 18.4371 9.15829C18.5952 9.00016 18.7829 8.87476 18.9895 8.78925C19.1961 8.70374 19.4176 8.65981 19.6412 8.65996Z" fill="url(#paint0_linear_1_52)"/>
<path d="M25.1408 44.523C35.0572 44.523 34.4381 40.2228 34.4381 40.2228L34.4269 35.7676H24.9639V34.4299H38.1857C38.1857 34.4299 44.5312 35.1496 44.5312 25.1437C44.5312 15.1379 38.9928 15.4928 38.9928 15.4928H35.6873V20.1359C35.6873 20.1359 35.8654 25.6744 30.2371 25.6744H20.8516C20.8516 25.6744 15.5781 25.5891 15.5781 30.7707V39.3383C15.5781 39.3383 14.7775 44.523 25.1408 44.523ZM30.3588 41.5271C30.1352 41.5273 29.9137 41.4834 29.7071 41.3979C29.5005 41.3124 29.3127 41.1871 29.1546 41.0289C28.9964 40.8708 28.871 40.6831 28.7855 40.4765C28.7 40.2699 28.6561 40.0484 28.6562 39.8248C28.6561 39.6012 28.7 39.3797 28.7855 39.1731C28.871 38.9664 28.9964 38.7787 29.1545 38.6205C29.3126 38.4624 29.5004 38.337 29.707 38.2515C29.9137 38.166 30.1352 38.1221 30.3588 38.1223C30.5824 38.1221 30.8039 38.166 31.0105 38.2515C31.2172 38.337 31.4049 38.4624 31.5631 38.6205C31.7212 38.7787 31.8466 38.9664 31.9321 39.1731C32.0176 39.3797 32.0615 39.6012 32.0613 39.8248C32.0615 40.0484 32.0175 40.2699 31.932 40.4765C31.8465 40.6831 31.7211 40.8708 31.563 41.0289C31.4049 41.1871 31.2171 41.3124 31.0105 41.3979C30.8039 41.4834 30.5824 41.5273 30.3588 41.5271Z" fill="url(#paint1_linear_1_52)"/>
<defs>
<linearGradient id="paint0_linear_1_52" x1="9.22266" y1="9.15937" x2="28.5807" y2="28.3242" gradientUnits="userSpaceOnUse">
<stop stop-color="#387EB8"/>
<stop offset="1" stop-color="#366994"/>
</linearGradient>
<linearGradient id="paint1_linear_1_52" x1="21.1047" y1="21.4658" x2="41.893" y2="41.1176" gradientUnits="userSpaceOnUse">
<stop stop-color="#FFE052"/>
<stop offset="1" stop-color="#FFC331"/>
</linearGradient>
</defs>
</svg>
